<mxfile host="Electron" modified="2024-07-30T19:15:32.723Z" agent="Mozilla/5.0 (Windows NT 10.0; Win64; x64) AppleWebKit/537.36 (KHTML, like Gecko) draw.io/23.0.2 Chrome/120.0.6099.109 Electron/28.1.0 Safari/537.36" etag="V9jmivWUyOiemAMb6QOx" version="23.0.2" type="device">
  <diagram name="Page-1" id="qhZHeVUmbRPG0urg9n10">
    <mxGraphModel dx="1195" dy="697" grid="1" gridSize="10" guides="1" tooltips="1" connect="1" arrows="1" fold="1" page="1" pageScale="1" pageWidth="850" pageHeight="1100" math="0" shadow="0">
      <root>
        <mxCell id="0" />
        <mxCell id="1" parent="0" />
        <mxCell id="o_qDBNguzK4fJd-rDJtr-17" value="" style="rounded=0;whiteSpace=wrap;html=1;fillColor=none;movable=0;resizable=0;rotatable=0;deletable=0;editable=0;locked=1;connectable=0;" vertex="1" parent="1">
          <mxGeometry x="70.57" y="490" width="750" height="450" as="geometry" />
        </mxCell>
        <mxCell id="o_qDBNguzK4fJd-rDJtr-15" value="" style="rounded=0;whiteSpace=wrap;html=1;fillColor=none;" vertex="1" parent="1">
          <mxGeometry x="70" y="230" width="750" height="200" as="geometry" />
        </mxCell>
        <mxCell id="o_qDBNguzK4fJd-rDJtr-1" value="Server" style="verticalLabelPosition=bottom;sketch=0;aspect=fixed;html=1;verticalAlign=top;strokeColor=none;align=center;outlineConnect=0;shape=mxgraph.citrix.dns_server;" vertex="1" parent="1">
          <mxGeometry x="407.32" y="283.25" width="76.5" height="92.5" as="geometry" />
        </mxCell>
        <mxCell id="o_qDBNguzK4fJd-rDJtr-2" value="Authentication&lt;br&gt;Middleware" style="verticalLabelPosition=bottom;sketch=0;aspect=fixed;html=1;verticalAlign=top;strokeColor=none;align=center;outlineConnect=0;shape=mxgraph.citrix.middleware;" vertex="1" parent="1">
          <mxGeometry x="400" y="830" width="83.82" height="50" as="geometry" />
        </mxCell>
        <mxCell id="o_qDBNguzK4fJd-rDJtr-3" value="Client" style="verticalLabelPosition=bottom;sketch=0;aspect=fixed;html=1;verticalAlign=top;strokeColor=none;align=center;outlineConnect=0;shape=mxgraph.citrix.thin_client;" vertex="1" parent="1">
          <mxGeometry x="90" y="290.25" width="71" height="71" as="geometry" />
        </mxCell>
        <mxCell id="o_qDBNguzK4fJd-rDJtr-6" value="" style="endArrow=classic;html=1;rounded=0;" edge="1" parent="1">
          <mxGeometry width="50" height="50" relative="1" as="geometry">
            <mxPoint x="180" y="326" as="sourcePoint" />
            <mxPoint x="390" y="326" as="targetPoint" />
          </mxGeometry>
        </mxCell>
        <mxCell id="o_qDBNguzK4fJd-rDJtr-7" value="1. Client makes a request" style="text;html=1;align=center;verticalAlign=middle;resizable=0;points=[];autosize=1;strokeColor=none;fillColor=none;" vertex="1" parent="1">
          <mxGeometry x="210" y="296.75" width="160" height="30" as="geometry" />
        </mxCell>
        <mxCell id="o_qDBNguzK4fJd-rDJtr-8" value="Database" style="verticalLabelPosition=bottom;sketch=0;aspect=fixed;html=1;verticalAlign=top;strokeColor=none;align=center;outlineConnect=0;shape=mxgraph.citrix.database;" vertex="1" parent="1">
          <mxGeometry x="730" y="289.74" width="62.5" height="73.53" as="geometry" />
        </mxCell>
        <mxCell id="o_qDBNguzK4fJd-rDJtr-9" value="" style="endArrow=classic;html=1;rounded=0;" edge="1" parent="1">
          <mxGeometry width="50" height="50" relative="1" as="geometry">
            <mxPoint x="500" y="327" as="sourcePoint" />
            <mxPoint x="710" y="327" as="targetPoint" />
          </mxGeometry>
        </mxCell>
        <mxCell id="o_qDBNguzK4fJd-rDJtr-10" value="2. Server fetches data if needed" style="text;html=1;align=center;verticalAlign=middle;resizable=0;points=[];autosize=1;strokeColor=none;fillColor=none;" vertex="1" parent="1">
          <mxGeometry x="505" y="297.75" width="190" height="30" as="geometry" />
        </mxCell>
        <mxCell id="o_qDBNguzK4fJd-rDJtr-11" value="" style="endArrow=none;html=1;rounded=0;startArrow=classic;startFill=1;endFill=0;" edge="1" parent="1">
          <mxGeometry width="50" height="50" relative="1" as="geometry">
            <mxPoint x="500" y="348.25" as="sourcePoint" />
            <mxPoint x="710" y="348" as="targetPoint" />
          </mxGeometry>
        </mxCell>
        <mxCell id="o_qDBNguzK4fJd-rDJtr-12" value="3. Database returns data" style="text;html=1;align=center;verticalAlign=middle;resizable=0;points=[];autosize=1;strokeColor=none;fillColor=none;" vertex="1" parent="1">
          <mxGeometry x="530" y="349" width="160" height="30" as="geometry" />
        </mxCell>
        <mxCell id="o_qDBNguzK4fJd-rDJtr-13" value="" style="endArrow=none;html=1;rounded=0;startArrow=classic;startFill=1;endFill=0;" edge="1" parent="1">
          <mxGeometry width="50" height="50" relative="1" as="geometry">
            <mxPoint x="180" y="348.25" as="sourcePoint" />
            <mxPoint x="390" y="348" as="targetPoint" />
          </mxGeometry>
        </mxCell>
        <mxCell id="o_qDBNguzK4fJd-rDJtr-14" value="4. Server returns response" style="text;html=1;align=center;verticalAlign=middle;resizable=0;points=[];autosize=1;strokeColor=none;fillColor=none;" vertex="1" parent="1">
          <mxGeometry x="205" y="349" width="170" height="30" as="geometry" />
        </mxCell>
        <mxCell id="o_qDBNguzK4fJd-rDJtr-16" value="Unprotected routes flow (aka when not connected)" style="text;html=1;strokeColor=none;fillColor=none;align=center;verticalAlign=middle;whiteSpace=wrap;rounded=0;" vertex="1" parent="1">
          <mxGeometry x="70" y="200" width="290" height="30" as="geometry" />
        </mxCell>
        <mxCell id="o_qDBNguzK4fJd-rDJtr-18" value="Server" style="verticalLabelPosition=bottom;sketch=0;aspect=fixed;html=1;verticalAlign=top;strokeColor=none;align=center;outlineConnect=0;shape=mxgraph.citrix.dns_server;" vertex="1" parent="1">
          <mxGeometry x="407.89" y="536.25" width="76.5" height="92.5" as="geometry" />
        </mxCell>
        <mxCell id="o_qDBNguzK4fJd-rDJtr-19" value="Client" style="verticalLabelPosition=bottom;sketch=0;aspect=fixed;html=1;verticalAlign=top;strokeColor=none;align=center;outlineConnect=0;shape=mxgraph.citrix.thin_client;" vertex="1" parent="1">
          <mxGeometry x="90.57" y="550.25" width="71" height="71" as="geometry" />
        </mxCell>
        <mxCell id="o_qDBNguzK4fJd-rDJtr-20" value="" style="endArrow=classic;html=1;rounded=0;" edge="1" parent="1">
          <mxGeometry width="50" height="50" relative="1" as="geometry">
            <mxPoint x="180.57" y="555" as="sourcePoint" />
            <mxPoint x="390.57" y="555" as="targetPoint" />
          </mxGeometry>
        </mxCell>
        <mxCell id="o_qDBNguzK4fJd-rDJtr-21" value="1. Client makes a request" style="text;html=1;align=center;verticalAlign=middle;resizable=0;points=[];autosize=1;strokeColor=none;fillColor=none;" vertex="1" parent="1">
          <mxGeometry x="210.57" y="525.75" width="160" height="30" as="geometry" />
        </mxCell>
        <mxCell id="o_qDBNguzK4fJd-rDJtr-22" value="Database" style="verticalLabelPosition=bottom;sketch=0;aspect=fixed;html=1;verticalAlign=top;strokeColor=none;align=center;outlineConnect=0;shape=mxgraph.citrix.database;" vertex="1" parent="1">
          <mxGeometry x="730.57" y="549.74" width="62.5" height="73.53" as="geometry" />
        </mxCell>
        <mxCell id="o_qDBNguzK4fJd-rDJtr-23" value="" style="endArrow=classic;html=1;rounded=0;" edge="1" parent="1">
          <mxGeometry width="50" height="50" relative="1" as="geometry">
            <mxPoint x="500.57" y="587" as="sourcePoint" />
            <mxPoint x="710.57" y="587" as="targetPoint" />
          </mxGeometry>
        </mxCell>
        <mxCell id="o_qDBNguzK4fJd-rDJtr-24" value="3.2. Authentication middleware&lt;br&gt;succeeded : Server fetches data&lt;br&gt;if needed" style="text;html=1;align=center;verticalAlign=middle;resizable=0;points=[];autosize=1;strokeColor=none;fillColor=none;" vertex="1" parent="1">
          <mxGeometry x="500" y="530" width="200" height="60" as="geometry" />
        </mxCell>
        <mxCell id="o_qDBNguzK4fJd-rDJtr-25" value="" style="endArrow=none;html=1;rounded=0;startArrow=classic;startFill=1;endFill=0;" edge="1" parent="1">
          <mxGeometry width="50" height="50" relative="1" as="geometry">
            <mxPoint x="500.57" y="608.25" as="sourcePoint" />
            <mxPoint x="710.57" y="608" as="targetPoint" />
          </mxGeometry>
        </mxCell>
        <mxCell id="o_qDBNguzK4fJd-rDJtr-26" value="4. Database returns data" style="text;html=1;align=center;verticalAlign=middle;resizable=0;points=[];autosize=1;strokeColor=none;fillColor=none;" vertex="1" parent="1">
          <mxGeometry x="530.57" y="609" width="160" height="30" as="geometry" />
        </mxCell>
        <mxCell id="o_qDBNguzK4fJd-rDJtr-27" value="" style="endArrow=none;html=1;rounded=0;startArrow=classic;startFill=1;endFill=0;" edge="1" parent="1">
          <mxGeometry width="50" height="50" relative="1" as="geometry">
            <mxPoint x="180.57" y="577.25" as="sourcePoint" />
            <mxPoint x="390.57" y="577" as="targetPoint" />
          </mxGeometry>
        </mxCell>
        <mxCell id="o_qDBNguzK4fJd-rDJtr-28" value="3.1. Authentication middleware failed :&lt;br&gt;401 Unauthorization response" style="text;html=1;align=center;verticalAlign=middle;resizable=0;points=[];autosize=1;strokeColor=none;fillColor=none;" vertex="1" parent="1">
          <mxGeometry x="175" y="581" width="230" height="40" as="geometry" />
        </mxCell>
        <mxCell id="o_qDBNguzK4fJd-rDJtr-29" value="Protected routes flow (aka when connected)" style="text;html=1;strokeColor=none;fillColor=none;align=center;verticalAlign=middle;whiteSpace=wrap;rounded=0;" vertex="1" parent="1">
          <mxGeometry x="70.57" y="460" width="259.43" height="30" as="geometry" />
        </mxCell>
        <mxCell id="o_qDBNguzK4fJd-rDJtr-30" value="" style="endArrow=classic;html=1;rounded=0;exitX=0.493;exitY=0.395;exitDx=0;exitDy=0;exitPerimeter=0;" edge="1" parent="1" source="o_qDBNguzK4fJd-rDJtr-17">
          <mxGeometry width="50" height="50" relative="1" as="geometry">
            <mxPoint x="360" y="779.25" as="sourcePoint" />
            <mxPoint x="440" y="810" as="targetPoint" />
          </mxGeometry>
        </mxCell>
        <mxCell id="o_qDBNguzK4fJd-rDJtr-31" value="3. Authentication middleware either returns&lt;br&gt;a 401 Unauthorized error or delegates&lt;br&gt;the request to the requested one" style="text;html=1;align=center;verticalAlign=middle;resizable=0;points=[];autosize=1;strokeColor=none;fillColor=none;" vertex="1" parent="1">
          <mxGeometry x="445.56999999999994" y="700" width="250" height="60" as="geometry" />
        </mxCell>
        <mxCell id="o_qDBNguzK4fJd-rDJtr-32" value="2. Authentication middleware&lt;br&gt;intercepts the request" style="text;html=1;align=center;verticalAlign=middle;resizable=0;points=[];autosize=1;strokeColor=none;fillColor=none;" vertex="1" parent="1">
          <mxGeometry x="249.99999999999994" y="710" width="180" height="40" as="geometry" />
        </mxCell>
        <mxCell id="o_qDBNguzK4fJd-rDJtr-33" value="" style="endArrow=none;html=1;rounded=0;startArrow=classic;startFill=1;endFill=0;" edge="1" parent="1">
          <mxGeometry width="50" height="50" relative="1" as="geometry">
            <mxPoint x="180.57" y="627.25" as="sourcePoint" />
            <mxPoint x="390.57" y="627" as="targetPoint" />
          </mxGeometry>
        </mxCell>
        <mxCell id="o_qDBNguzK4fJd-rDJtr-34" value="5. Server returns response" style="text;html=1;align=center;verticalAlign=middle;resizable=0;points=[];autosize=1;strokeColor=none;fillColor=none;" vertex="1" parent="1">
          <mxGeometry x="205" y="627" width="170" height="30" as="geometry" />
        </mxCell>
      </root>
    </mxGraphModel>
  </diagram>
</mxfile>
